<svg width="64" height="28" viewBox="0 0 64 28" fill="none" xmlns="http://www.w3.org/2000/svg">
<g id="logo" clip-path="url(#clip0_3_293)">
<path id="Vector" d="M0.735596 21.5H13.4196V17.944H5.27159V1.48001H0.735596V21.5Z" fill="black"/>
<path id="Vector_2" d="M21.7582 18.728C19.4622 18.728 18.1742 17.048 18.1742 14.248V14.024C18.1742 11.224 19.5182 9.60001 21.7582 9.60001C24.0262 9.60001 25.3422 11.28 25.3422 14.08V14.276C25.3422 17.048 24.0262 18.728 21.7582 18.728ZM21.7302 21.808C26.1262 21.808 29.4582 18.868 29.4582 14.248V14.024C29.4582 9.46001 26.1542 6.52001 21.7582 6.52001C17.3622 6.52001 14.0302 9.51601 14.0302 14.108V14.332C14.0302 18.896 17.3622 21.808 21.7302 21.808Z" fill="black"/>
<path id="Vector_3" d="M37.836 26.904C42.652 26.904 45.536 24.692 45.564 20.352V6.85601H41.532V9.04001C40.692 7.55601 39.264 6.52001 36.884 6.52001C33.244 6.52001 30.444 9.46001 30.444 13.66V13.856C30.444 18.196 33.272 20.856 36.828 20.856C38.984 20.856 40.72 19.568 41.532 18.14V20.352C41.532 22.648 40.3 23.936 37.836 23.936C35.764 23.936 34.84 23.096 34.588 21.808H30.556C30.948 24.832 33.104 26.904 37.836 26.904ZM38.032 17.804C36.016 17.804 34.588 16.292 34.588 13.856V13.632C34.588 11.224 35.848 9.60001 38.116 9.60001C40.328 9.60001 41.644 11.112 41.644 13.604V13.8C41.644 16.292 40.16 17.804 38.032 17.804Z" fill="black"/>
<path id="Vector_4" d="M55.1328 18.728C52.8368 18.728 51.5488 17.048 51.5488 14.248V14.024C51.5488 11.224 52.8928 9.60001 55.1328 9.60001C57.4008 9.60001 58.7168 11.28 58.7168 14.08V14.276C58.7168 17.048 57.4008 18.728 55.1328 18.728ZM55.1048 21.808C59.5008 21.808 62.8328 18.868 62.8328 14.248V14.024C62.8328 9.46001 59.5288 6.52001 55.1328 6.52001C50.7368 6.52001 47.4048 9.51601 47.4048 14.108V14.332C47.4048 18.896 50.7368 21.808 55.1048 21.808Z" fill="black"/>
</g>
<defs>
<clipPath id="clip0_3_293">
<rect width="63" height="27" fill="white" transform="translate(0.171143 0.5)"/>
</clipPath>
</defs>
</svg>
